<svg xmlns="http://www.w3.org/2000/svg" xmlns:xlink="http://www.w3.org/1999/xlink" width="227" height="48" viewBox="0 0 227 48">
    <defs>
        <path id="a" d="M0 49h227V0H0z"/>
    </defs>
    <g fill="none" fill-rule="evenodd">
        <path fill="#003287" d="M20.797 14.742c-.856-1.284-3.529-3.69-8.342-3.69C4.813 11.052 0 16.986 0 24.74c0 7.752 4.813 13.741 12.455 13.741 3.529 0 6.685-1.336 8.661-4.01l.16-.053-.052 3.475h8.126V1h-8.553v13.742zm-5.882 16.734c-3.686 0-6.2-2.78-6.2-6.844 0-4.062 2.514-6.843 6.2-6.843 3.69 0 6.15 2.781 6.15 6.843 0 4.064-2.46 6.844-6.15 6.844zm62.264-19.942l-5.934 16.948-5.988-16.948h-8.928l10.426 25.558-.963 2.299c-.695 1.71-1.602 1.71-2.566 1.71-1.282 0-3.156-.694-3.156-.694l-1.709 6.308S61.194 48 65.685 48c4.49 0 6.63-2.888 8.553-7.593L86 11.534h-8.821zm-33.571-.482c-4.921 0-9.037 1.55-11.28 2.674l2.243 5.56c1.337-.855 4.704-2.352 8.075-2.352 3.42 0 5.397 1.443 5.397 4.223v.59l-6.628.267c-4.866.213-10.263 2.191-10.263 8.073 0 5.882 4.915 8.394 9.569 8.394 4.275 0 6.413-2.246 7.537-3.367l.159 2.78h8.179V23.028c0-4.438-1.121-7.005-3.154-8.928-2.084-1.927-4.916-3.049-9.834-3.049zm4.488 19.57c-.535.908-2.084 2.405-4.383 2.405-2.35 0-4.008-1.229-4.008-3.261 0-1.978 1.549-3.101 4.171-3.208l4.22-.267v4.331z"/>
        <mask id="b" fill="#fff">
            <use xlink:href="#a"/>
        </mask>
        <path fill="#00A5E1" d="M88.513 38.41h8.595V11.963h-8.595V38.41zM92.81 0C88.592 0 75 3.295 75 4.452c0 1.251 13.592 4.452 17.81 4.452 2.902 0 4.888-1.77 4.888-4.452C97.698 1.824 95.712 0 92.81 0zm23.794 11.48c-3.815 0-6.23 1.931-7.683 4.292h-.105l.054-3.809h-8.595V38.41h8.595V25.322c0-3.81 1.02-6.814 4.727-6.814 3.542 0 4.08 2.628 4.08 6.115V38.41h8.594V22.8c0-6.385-1.986-11.32-9.667-11.32zm73.533 4.238h-.108l.054-3.755h-8.593V38.41h8.593V26.662c0-2.95.696-4.668 1.342-5.526.645-.857 2.04-1.931 3.976-1.931 1.505 0 2.63.376 3.115.644h.375l.483-7.886s-.913-.483-2.684-.483c-2.846 0-5.05 1.34-6.553 4.238zm-45.333 7.188c-1.13-.428-1.935-.697-3.76-1.233-1.827-.536-3.867-1.18-3.867-2.575 0-1.394 1.13-1.932 3.17-1.932 2.147 0 5.155 1.396 6.658 2.575l2.795-5.042c-1.505-1.234-4.62-3.273-10.153-3.273-5.531 0-10.042 3.165-10.042 8.315 0 4.721 3.276 6.383 4.51 6.921 1.234.537 2.741.966 3.76 1.234.967.322 4.833 1.18 4.833 2.897 0 1.716-1.505 2.254-3.65 2.254-2.15 0-5.694-1.397-7.844-3.22l-3.22 5.097c3.006 2.842 7.195 4.075 11.169 4.075 3.545 0 6.177-.804 8.111-2.306 1.935-1.556 3.116-3.701 3.116-6.438 0-2.79-1.29-4.506-2.15-5.364-.91-.858-2.255-1.554-3.436-1.985zM227 24.408c0-7.725-5.425-12.928-13.265-12.928-7.84 0-14.287 4.988-14.287 13.732 0 8.746 5.962 13.787 14.124 13.787 8.219 0 11.712-3.646 12.568-4.29l-3.38-4.454c-1.506 1.02-4.514 2.522-7.952 2.522-3.491 0-6.392-1.716-6.767-5.525h18.852s.107-1.557.107-2.844zm-18.904-2.038c.107-2.521 1.931-5.31 5.476-5.31 3.6 0 5.372 2.896 5.426 5.31h-10.902zm-38.317 3.648c0 3.487-1.395 5.9-4.458 5.9s-3.92-2.091-3.92-5.149V11.963h-8.594v15.985c0 3.81.645 6.117 1.934 7.94 1.34 1.77 3.759 3.112 7.572 3.112s6.606-1.985 7.735-3.595l.052 3.005h8.274V11.963h-8.595v14.055z" mask="url(#b)"/>
    </g>
</svg>
